<svg width="139" height="134" viewBox="0 0 139 134" fill="none" xmlns="http://www.w3.org/2000/svg">
<path d="M40.283 71.6701V81.9551H5.77301V71.6701H17.843V45.9151C17.163 46.7651 16.0013 47.6717 14.358 48.6351C12.7713 49.5984 11.0147 50.4201 9.08801 51.1001C7.21801 51.7801 5.54634 52.1201 4.07301 52.1201V41.4951C5.09301 41.4951 6.31134 41.1834 7.72801 40.5601C9.20134 39.8801 10.6463 39.0867 12.063 38.1801C13.5363 37.2734 14.783 36.3951 15.803 35.5451C16.8797 34.6384 17.5597 33.9301 17.843 33.4201H29.488V71.6701H40.283ZM72.17 42.7701H44.715V32.4001H90.105L60.185 92.7501H47.265L72.17 42.7701ZM125.596 81.9551L112.591 62.7451L106.556 68.6951V81.9551H95.1664V19.9051H106.556V57.4751L124.491 37.5001H136.561L119.986 56.3701L137.751 81.9551H125.596Z" fill="#5CBE3A"/>
<path opacity="0.7" d="M39.3414 127.486V116.126H44.2054C44.7068 116.126 45.1654 116.233 45.5814 116.446C45.9974 116.649 46.3601 116.926 46.6694 117.278C46.9788 117.619 47.2188 118.009 47.3894 118.446C47.5601 118.873 47.6454 119.31 47.6454 119.758C47.6454 120.281 47.5441 120.777 47.3414 121.246C47.1494 121.715 46.8721 122.115 46.5094 122.446C46.1574 122.777 45.7414 123.006 45.2614 123.134L48.0134 127.486H46.3814L43.7894 123.406H40.7814V127.486H39.3414ZM40.7814 122.126H44.2214C44.6161 122.126 44.9574 122.019 45.2454 121.806C45.5441 121.582 45.7734 121.289 45.9334 120.926C46.1041 120.563 46.1894 120.174 46.1894 119.758C46.1894 119.331 46.0934 118.942 45.9014 118.59C45.7094 118.227 45.4588 117.939 45.1494 117.726C44.8401 117.513 44.4988 117.406 44.1254 117.406H40.7814V122.126ZM57.5691 126.206V127.486H49.8571V116.126H57.4251V117.406H51.2971V121.086H56.6251V122.286H51.2971V126.206H57.5691ZM59.8646 116.126L63.6246 125.678L67.3686 116.126H68.8886L64.2806 127.486H62.9686L58.3446 116.126H59.8646ZM70.4196 127.486V116.126H71.8596V127.486H70.4196ZM82.2878 126.206V127.486H74.5758V116.126H82.1438V117.406H76.0158V121.086H81.3438V122.286H76.0158V126.206H82.2878ZM88.4233 116.19H89.7833L91.2873 120.142L92.8073 116.19H94.1673L92.1993 121.134L94.1513 125.822L97.9913 116.126H99.5593L94.8073 127.486H93.5593L91.3033 122.126L89.0313 127.486H87.7833L83.0473 116.126H84.5993L88.4553 125.822L90.3913 121.134L88.4233 116.19Z" fill="#051101"/>
</svg>
